<svg xmlns="http://www.w3.org/2000/svg" viewBox="0 0 360 180" fill="none">
  <rect x="38" y="30" width="284" height="120" rx="16" fill="#FAFAFA" stroke="#D4D4D4"/>
  <rect x="58" y="50" width="64" height="30" rx="8" fill="#F5F5F5" stroke="#D4D4D4"/>
  <rect x="140" y="50" width="64" height="30" rx="8" fill="#F5F5F5" stroke="#D4D4D4"/>
  <rect x="222" y="50" width="64" height="30" rx="8" fill="#171717"/>
  <path d="M70 62h34M152 62h34M234 62h34" stroke="#A3A3A3" stroke-width="3" stroke-linecap="round"/>
  <path d="M70 70h22M152 70h22" stroke="#D4D4D4" stroke-width="3" stroke-linecap="round"/>
  <path d="M234 70h22" stroke="#FAFAFA" stroke-width="3" stroke-linecap="round"/>
  <rect x="58" y="100" width="96" height="30" rx="8" fill="#F5F5F5" stroke="#D4D4D4"/>
  <path d="M70 120l16-10 18 6 20-18 18 10" stroke="#171717" stroke-width="3" stroke-linecap="round" stroke-linejoin="round"/>
  <rect x="184" y="102" width="14" height="28" rx="4" fill="#D4D4D4"/>
  <rect x="208" y="92" width="14" height="38" rx="4" fill="#A3A3A3"/>
  <rect x="232" y="84" width="14" height="46" rx="4" fill="#171717"/>
  <rect x="256" y="96" width="14" height="34" rx="4" fill="#737373"/>
</svg>
