<svg width="960" height="400" viewBox="0 0 960 400" fill="none" xmlns="http://www.w3.org/2000/svg" role="img" aria-labelledby="title desc">
  <title id="title">AgentState product architecture</title>
  <desc id="desc">Agent SDKs send state events to AgentState, which stores durable history and returns context to the app.</desc>
  <rect width="960" height="400" rx="20" fill="#FAFAFA"/>
  <rect x="28" y="28" width="904" height="344" rx="18" fill="#FFFFFF" stroke="#E5E5E5" stroke-width="2"/>
  <rect x="64" y="76" width="208" height="248" rx="16" fill="#F5F5F5" stroke="#D4D4D4" stroke-width="2"/>
  <text x="88" y="118" fill="#171717" font-family="Inter, ui-sans-serif, system-ui, sans-serif" font-size="24" font-weight="700">Your AI product</text>
  <text x="88" y="150" fill="#737373" font-family="Inter, ui-sans-serif, system-ui, sans-serif" font-size="15">Chat UI, worker, cron job,</text>
  <text x="88" y="172" fill="#737373" font-family="Inter, ui-sans-serif, system-ui, sans-serif" font-size="15">or agent runtime.</text>
  <rect x="88" y="210" width="152" height="34" rx="9" fill="#FFFFFF" stroke="#D4D4D4"/>
  <text x="106" y="232" fill="#404040" font-family="Inter, ui-sans-serif, system-ui, sans-serif" font-size="14" font-weight="600">LangGraph</text>
  <rect x="88" y="256" width="152" height="34" rx="9" fill="#FFFFFF" stroke="#D4D4D4"/>
  <text x="106" y="278" fill="#404040" font-family="Inter, ui-sans-serif, system-ui, sans-serif" font-size="14" font-weight="600">Vercel AI SDK</text>
  <rect x="88" y="302" width="152" height="34" rx="9" fill="#FFFFFF" stroke="#D4D4D4"/>
  <text x="106" y="324" fill="#404040" font-family="Inter, ui-sans-serif, system-ui, sans-serif" font-size="14" font-weight="600">Cloudflare Agents</text>
  <rect x="376" y="70" width="208" height="260" rx="20" fill="#171717"/>
  <text x="418" y="120" fill="#FAFAFA" font-family="Inter, ui-sans-serif, system-ui, sans-serif" font-size="28" font-weight="800">AgentState</text>
  <text x="410" y="154" fill="#D4D4D4" font-family="Inter, ui-sans-serif, system-ui, sans-serif" font-size="15">State API for agent</text>
  <text x="410" y="176" fill="#D4D4D4" font-family="Inter, ui-sans-serif, system-ui, sans-serif" font-size="15">sessions and operations.</text>
  <rect x="408" y="214" width="144" height="34" rx="9" fill="#262626" stroke="#525252"/>
  <text x="431" y="236" fill="#F5F5F5" font-family="Inter, ui-sans-serif, system-ui, sans-serif" font-size="14" font-weight="600">write state</text>
  <rect x="408" y="260" width="144" height="34" rx="9" fill="#262626" stroke="#525252"/>
  <text x="428" y="282" fill="#F5F5F5" font-family="Inter, ui-sans-serif, system-ui, sans-serif" font-size="14" font-weight="600">read context</text>
  <rect x="688" y="76" width="208" height="248" rx="16" fill="#F5F5F5" stroke="#D4D4D4" stroke-width="2"/>
  <text x="722" y="118" fill="#171717" font-family="Inter, ui-sans-serif, system-ui, sans-serif" font-size="24" font-weight="700">Durable state</text>
  <text x="722" y="150" fill="#737373" font-family="Inter, ui-sans-serif, system-ui, sans-serif" font-size="15">Queryable memory for</text>
  <text x="722" y="172" fill="#737373" font-family="Inter, ui-sans-serif, system-ui, sans-serif" font-size="15">production agent systems.</text>
  <circle cx="744" cy="226" r="9" fill="#171717"/>
  <text x="764" y="232" fill="#404040" font-family="Inter, ui-sans-serif, system-ui, sans-serif" font-size="15">Conversations</text>
  <circle cx="744" cy="268" r="9" fill="#171717"/>
  <text x="764" y="274" fill="#404040" font-family="Inter, ui-sans-serif, system-ui, sans-serif" font-size="15">Metadata and tags</text>
  <circle cx="744" cy="310" r="9" fill="#171717"/>
  <text x="764" y="316" fill="#404040" font-family="Inter, ui-sans-serif, system-ui, sans-serif" font-size="15">Analytics and audit</text>
  <path d="M292 154H352" stroke="#737373" stroke-width="3" stroke-linecap="round"/>
  <path d="M344 144L356 154L344 164" stroke="#737373" stroke-width="3" stroke-linecap="round" stroke-linejoin="round"/>
  <text x="300" y="134" fill="#525252" font-family="Inter, ui-sans-serif, system-ui, sans-serif" font-size="14" font-weight="600">events</text>
  <path d="M608 154H668" stroke="#737373" stroke-width="3" stroke-linecap="round"/>
  <path d="M660 144L672 154L660 164" stroke="#737373" stroke-width="3" stroke-linecap="round" stroke-linejoin="round"/>
  <text x="614" y="134" fill="#525252" font-family="Inter, ui-sans-serif, system-ui, sans-serif" font-size="14" font-weight="600">persist</text>
  <path d="M668 270H608" stroke="#737373" stroke-width="3" stroke-linecap="round"/>
  <path d="M616 260L604 270L616 280" stroke="#737373" stroke-width="3" stroke-linecap="round" stroke-linejoin="round"/>
  <text x="614" y="296" fill="#525252" font-family="Inter, ui-sans-serif, system-ui, sans-serif" font-size="14" font-weight="600">context</text>
  <path d="M352 270H292" stroke="#737373" stroke-width="3" stroke-linecap="round"/>
  <path d="M300 260L288 270L300 280" stroke="#737373" stroke-width="3" stroke-linecap="round" stroke-linejoin="round"/>
  <text x="304" y="296" fill="#525252" font-family="Inter, ui-sans-serif, system-ui, sans-serif" font-size="14" font-weight="600">resume</text>
</svg>
